<svg width="256px" height="256px" viewBox="0 0 24 24" version="1.1" xmlns="http://www.w3.org/2000/svg" xmlns:xlink="http://www.w3.org/1999/xlink" preserveAspectRatio="xMidYMid">
    <g>
        <path d="M16.6,14.2c-0.2-0.1-1.5-0.7-1.7-0.8c-0.2-0.1-0.4-0.1-0.6,0.1c-0.2,0.2-0.6,0.8-0.8,0.9c-0.1,0.1-0.3,0.2-0.5,0.1c-0.2-0.1-1-0.4-1.9-1.2c-0.7-0.6-1.2-1.4-1.3-1.6c-0.1-0.2,0-0.4,0.1-0.5c0.1-0.1,0.2-0.2,0.4-0.4c0.1-0.1,0.2-0.2,0.2-0.4c0.1-0.1,0-0.2,0-0.4C10.1,10,10,9.8,9.9,9.7c-0.1-0.1-0.6-1.5-0.8-2.1c-0.2-0.5-0.4-0.5-0.5-0.5c-0.1,0-0.3,0-0.5,0c-0.2,0-0.5,0.1-0.7,0.3c-0.2,0.2-0.8,0.8-0.8,2c0,1.2,0.8,2.3,1,2.4c0.1,0.2,1.5,2.3,3.7,3.2c0.5,0.2,0.9,0.4,1.2,0.5c0.5,0.2,1,0.1,1.3,0.1c0.4-0.1,1.5-0.6,1.7-1.2c0.2-0.5,0.2-1,0.1-1.1C17,14.3,16.8,14.3,16.6,14.2z M12,2C6.5,2,2,6.5,2,12c0,1.8,0.5,3.5,1.4,5L2.6,21.4l4.6-1.2c1.4,0.8,3,1.2,4.7,1.2h0c5.5,0,10-4.5,10-10C22,6.5,17.5,2,12,2z M12,20.2c-1.6,0-3.2-0.5-4.5-1.3l-0.3-0.2l-3.3,0.9l0.9-3.2l-0.2-0.3c-0.9-1.4-1.4-3-1.4-4.7c0-4.6,3.7-8.3,8.3-8.3c4.6,0,8.3,3.7,8.3,8.3C20.2,16.5,16.5,20.2,12,20.2z" fill="#FFFFFF"></path>
    </g>
</svg>